<svg xmlns="http://www.w3.org/2000/svg" viewBox="0 0 698.11 76.07"><defs><style>.cls-1{fill:#ffeba2;}</style></defs><g id="Layer_2" data-name="Layer 2"><g id="Layer_1-2" data-name="Layer 1"><path class="cls-1" d="M33.65,76.07a33.16,33.16,0,0,1-11.59-2.18,29.53,29.53,0,0,1-7.55-4,44.59,44.59,0,0,1-7.1-7.43,33.85,33.85,0,0,1-5.82-9.9A30.63,30.63,0,0,1,0,42.48V32.74A34.61,34.61,0,0,1,4.12,16.93,30.64,30.64,0,0,1,15.61,4.39,30.29,30.29,0,0,1,31.43,0,31.62,31.62,0,0,1,49.18,5.17a5.09,5.09,0,0,1,1-1.88,5.41,5.41,0,0,1,8,0,6.42,6.42,0,0,1,1.41,4.44V21a6.49,6.49,0,0,1-1.41,4.5,5.35,5.35,0,0,1-7.78.14,6.45,6.45,0,0,1-1.59-4.07c-.14-2.34-1.45-4.39-4-6.32A20.94,20.94,0,0,0,31.6,10.79a20,20,0,0,0-9.08,2.13,14.51,14.51,0,0,0-4.87,3.58,33.92,33.92,0,0,0-5.49,9.06,21.08,21.08,0,0,0-1.37,7.86V41.8a22.58,22.58,0,0,0,6.88,16.49c4.62,4.71,9.81,7,15.87,7A19.61,19.61,0,0,0,43.11,63a31.25,31.25,0,0,0,8.58-7.39,5.62,5.62,0,0,1,4.46-2.27,5.18,5.18,0,0,1,3.77,1.51,5.11,5.11,0,0,1,1.51,3.71c0,1.74-1,3.54-3.23,6a34.59,34.59,0,0,1-11.49,8.59A31.42,31.42,0,0,1,33.65,76.07Z"/><path class="cls-1" d="M51.82,11.09V7.73a3.65,3.65,0,0,1,.66-2.45,2.4,2.4,0,0,1,3.47,0,3.65,3.65,0,0,1,.66,2.45V21A3.76,3.76,0,0,1,56,23.51a2.34,2.34,0,0,1-3.36.06,3.56,3.56,0,0,1-.77-2.23q-.28-4.78-5.18-8.48a24.07,24.07,0,0,0-15-5.07,22.92,22.92,0,0,0-10.43,2.45,17.45,17.45,0,0,0-5.81,4.32,37,37,0,0,0-6,9.86,24.14,24.14,0,0,0-1.59,9V41.8a25.69,25.69,0,0,0,7.74,18.6q7.76,7.89,18,7.89a22.56,22.56,0,0,0,11-2.68A34.05,34.05,0,0,0,54,57.52a2.75,2.75,0,0,1,2.16-1.2A2.2,2.2,0,0,1,57.8,57a2.16,2.16,0,0,1,.63,1.59q0,1.32-2.45,4a31.29,31.29,0,0,1-10.51,7.89,28.28,28.28,0,0,1-11.82,2.65,30,30,0,0,1-10.54-2,26.53,26.53,0,0,1-6.78-3.59,42.92,42.92,0,0,1-6.58-6.92,31.27,31.27,0,0,1-5.33-9A27.77,27.77,0,0,1,3,42.48V32.74A31.43,31.43,0,0,1,6.79,18.3,27.5,27.5,0,0,1,17.16,7,27.15,27.15,0,0,1,31.43,3,28.63,28.63,0,0,1,51.82,11.09Z"/><path class="cls-1" d="M82,74.19a6.4,6.4,0,0,1-4.49-1.48,5.39,5.39,0,0,1,0-7.9A6.44,6.44,0,0,1,82,63.41h13.4V12.32H82a6.43,6.43,0,0,1-4.45-1.41,5.23,5.23,0,0,1-1.74-4,5.22,5.22,0,0,1,1.75-4A6.4,6.4,0,0,1,82,1.54h37.6a6.43,6.43,0,0,1,4.43,1.4,5.26,5.26,0,0,1,1.75,4,5.24,5.24,0,0,1-1.75,4,6.43,6.43,0,0,1-4.43,1.4H106.21V63.41h13.41a6.43,6.43,0,0,1,4.43,1.4,5.26,5.26,0,0,1,1.75,4,5.17,5.17,0,0,1-1.7,3.91,6.4,6.4,0,0,1-4.48,1.48Z"/><path class="cls-1" d="M103.21,9.32V66.41h16.4a3.71,3.71,0,0,1,2.45.65,2.2,2.2,0,0,1,.74,1.74,2.22,2.22,0,0,1-.74,1.71,3.59,3.59,0,0,1-2.45.68H82a3.59,3.59,0,0,1-2.45-.68,2.22,2.22,0,0,1-.74-1.71,2.2,2.2,0,0,1,.74-1.74A3.71,3.71,0,0,1,82,66.41h16.4V9.32H82a3.65,3.65,0,0,1-2.45-.65,2.2,2.2,0,0,1-.74-1.74,2.2,2.2,0,0,1,.74-1.74A3.71,3.71,0,0,1,82,4.54h37.59a3.71,3.71,0,0,1,2.45.65,2.2,2.2,0,0,1,.74,1.74,2.2,2.2,0,0,1-.74,1.74,3.65,3.65,0,0,1-2.45.65Z"/><path class="cls-1" d="M186.38,74.19,155.83,22.51v40.9h5.83a6.53,6.53,0,0,1,4.49,1.4,5.27,5.27,0,0,1,1.76,4,5.18,5.18,0,0,1-1.71,3.91,6.37,6.37,0,0,1-4.54,1.48H144.05a6.39,6.39,0,0,1-4.54-1.48,5.39,5.39,0,0,1,.05-7.9,6.53,6.53,0,0,1,4.49-1.4h1V12.32H141.6a6.39,6.39,0,0,1-4.43-1.41,5.21,5.21,0,0,1-1.75-4,5.14,5.14,0,0,1,1.75-4,6.39,6.39,0,0,1,4.43-1.41h14.25l30.61,51.79v-41h-5.83a6.4,6.4,0,0,1-4.44-1.41,5.21,5.21,0,0,1-1.75-4A5.23,5.23,0,0,1,176.12,3a6.38,6.38,0,0,1,4.51-1.44h17.66a6.43,6.43,0,0,1,4.43,1.4,5.23,5.23,0,0,1,1.76,4,5.24,5.24,0,0,1-1.75,4,6.48,6.48,0,0,1-4.44,1.4h-1V74.19Z"/><path class="cls-1" d="M194.24,71.19h-6.15L152.83,11.55V66.41h8.83a3.81,3.81,0,0,1,2.5.65,2.21,2.21,0,0,1,.75,1.74,2.23,2.23,0,0,1-.75,1.71,3.68,3.68,0,0,1-2.5.68H144.05a3.68,3.68,0,0,1-2.5-.68,2.22,2.22,0,0,1-.74-1.71,2.2,2.2,0,0,1,.74-1.74,3.81,3.81,0,0,1,2.5-.65h4V9.32H141.6a3.64,3.64,0,0,1-2.44-.65,2.21,2.21,0,0,1-.75-1.74,2.21,2.21,0,0,1,.75-1.74,3.69,3.69,0,0,1,2.44-.65h12.54L189.46,64.3v-55h-8.83a3.65,3.65,0,0,1-2.45-.65,2.2,2.2,0,0,1-.74-1.74,2.28,2.28,0,0,1,.71-1.74,3.69,3.69,0,0,1,2.48-.65h17.66a3.72,3.72,0,0,1,2.45.65,2.23,2.23,0,0,1,.74,1.74,2.23,2.23,0,0,1-.74,1.74,3.67,3.67,0,0,1-2.45.65h-4Z"/><path class="cls-1" d="M214,74.19a6.39,6.39,0,0,1-4.48-1.48,5.36,5.36,0,0,1,.05-7.9,6.43,6.43,0,0,1,4.43-1.4h3.44V12.32H214a6.42,6.42,0,0,1-4.44-1.41,5.21,5.21,0,0,1-1.75-4,5.2,5.2,0,0,1,1.76-4A6.39,6.39,0,0,1,214,1.54h53.31V21a6.4,6.4,0,0,1-1.41,4.44,5.41,5.41,0,0,1-8,0A6.4,6.4,0,0,1,256.53,21V12.32h-28.3v18.9h11.15V28.81a6.43,6.43,0,0,1,1.48-4.49,5.29,5.29,0,0,1,4-1.7,5.21,5.21,0,0,1,3.91,1.7,6.35,6.35,0,0,1,1.48,4.49V44.42a6.34,6.34,0,0,1-1.48,4.48,5.16,5.16,0,0,1-3.91,1.71,5.25,5.25,0,0,1-4-1.71,6.39,6.39,0,0,1-1.48-4.48V42H228.23V63.41H259V52.28a6.4,6.4,0,0,1,1.41-4.44,5.4,5.4,0,0,1,8,0,6.4,6.4,0,0,1,1.41,4.44V74.19Z"/><path class="cls-1" d="M225.23,39V66.41H262V52.28a3.65,3.65,0,0,1,.65-2.45,2.42,2.42,0,0,1,3.48,0,3.71,3.71,0,0,1,.65,2.45V71.19H214a3.61,3.61,0,0,1-2.45-.68,2.26,2.26,0,0,1-.74-1.71,2.23,2.23,0,0,1,.74-1.74,3.72,3.72,0,0,1,2.45-.65h6.44V9.32H214a3.67,3.67,0,0,1-2.45-.65,2.23,2.23,0,0,1-.74-1.74,2.23,2.23,0,0,1,.74-1.74A3.72,3.72,0,0,1,214,4.54h50.31V21a3.65,3.65,0,0,1-.66,2.45,2.42,2.42,0,0,1-3.48,0,3.71,3.71,0,0,1-.65-2.45V9.32h-34.3v24.9h17.15V28.81a3.53,3.53,0,0,1,.69-2.45,2.25,2.25,0,0,1,1.76-.74,2.19,2.19,0,0,1,1.71.74,3.54,3.54,0,0,1,.68,2.45V44.42a3.55,3.55,0,0,1-.68,2.45,2.23,2.23,0,0,1-1.71.74,2.29,2.29,0,0,1-1.76-.74,3.55,3.55,0,0,1-.69-2.45V39Z"/><path class="cls-1" d="M324.25,74.19a6.54,6.54,0,0,1-4.48-1.44,5.23,5.23,0,0,1-1.77-4,5.18,5.18,0,0,1,1.75-4,6.54,6.54,0,0,1,4.5-1.4h5.83V21.48L316,54.2h-9.4L292.21,21.53V63.41H298a6.48,6.48,0,0,1,4.44,1.4,5.26,5.26,0,0,1,1.75,4,5.21,5.21,0,0,1-1.7,3.91A6.43,6.43,0,0,1,298,74.19H280.38a6.39,6.39,0,0,1-4.48-1.48,5.18,5.18,0,0,1-1.71-3.91,5.24,5.24,0,0,1,1.75-4,6.46,6.46,0,0,1,4.44-1.4h1V12.32h0A6.4,6.4,0,0,1,277,10.91a5.22,5.22,0,0,1-1.76-4A5.23,5.23,0,0,1,277,3a6.4,6.4,0,0,1,4.44-1.41H295.1l16.13,36.73L327.12,1.54h13.7a6.57,6.57,0,0,1,4.5,1.4,5.26,5.26,0,0,1,1.75,4,5.24,5.24,0,0,1-1.75,4,6.46,6.46,0,0,1-4.46,1.4V63.41h1a6.53,6.53,0,0,1,4.49,1.4,5.23,5.23,0,0,1,1.76,4,5.18,5.18,0,0,1-1.71,3.91,6.37,6.37,0,0,1-4.54,1.48Z"/><path class="cls-1" d="M314,51.2h-5.47L290.12,9.32h-.91V66.41H298a3.71,3.71,0,0,1,2.45.65,2.23,2.23,0,0,1,.74,1.74,2.26,2.26,0,0,1-.74,1.71,3.59,3.59,0,0,1-2.45.68H280.38a3.59,3.59,0,0,1-2.45-.68,2.26,2.26,0,0,1-.74-1.71,2.23,2.23,0,0,1,.74-1.74,3.71,3.71,0,0,1,2.45-.65h4V9.32h-3A3.65,3.65,0,0,1,279,8.67a2.2,2.2,0,0,1-.74-1.74A2.2,2.2,0,0,1,279,5.19a3.71,3.71,0,0,1,2.45-.65h11.73l18.12,41.24L329.09,4.54h11.73a3.82,3.82,0,0,1,2.51.65,2.23,2.23,0,0,1,.74,1.74,2.23,2.23,0,0,1-.74,1.74,3.76,3.76,0,0,1-2.51.65h-3V66.41h4a3.84,3.84,0,0,1,2.51.65,2.23,2.23,0,0,1,.74,1.74,2.26,2.26,0,0,1-.74,1.71,3.71,3.71,0,0,1-2.51.68h-17.6a3.71,3.71,0,0,1-2.48-.68,2.35,2.35,0,0,1,0-3.45,3.82,3.82,0,0,1,2.51-.65h8.83V9.32h-1Z"/><path class="cls-1" d="M394,74.19a6.37,6.37,0,0,1-4.54-1.48,5.39,5.39,0,0,1,.05-7.9,6.53,6.53,0,0,1,4.49-1.4h4.79l-4.3-11.49H367.24L363,63.41h4.87a6.44,6.44,0,0,1,4.44,1.4,5.26,5.26,0,0,1,1.75,4,5.21,5.21,0,0,1-1.7,3.91,6.41,6.41,0,0,1-4.49,1.48H350a6.4,6.4,0,0,1-4.49-1.48,5.39,5.39,0,0,1,.05-7.9,6.44,6.44,0,0,1,4.44-1.4h1.61l18.92-51.09h-9.82a6.4,6.4,0,0,1-4.44-1.41,5.21,5.21,0,0,1-1.75-4,5.14,5.14,0,0,1,1.75-4,6.4,6.4,0,0,1,4.44-1.41h26.17l23.36,61.87h1.62a6.44,6.44,0,0,1,4.44,1.4,5.26,5.26,0,0,1,1.75,4,5.21,5.21,0,0,1-1.7,3.91,6.41,6.41,0,0,1-4.49,1.48Zm-3.6-33.06-9.73-25.6-9.43,25.6Z"/><path class="cls-1" d="M396.6,48.92H365.15l-6.44,17.49h9.17a3.71,3.71,0,0,1,2.45.65,2.2,2.2,0,0,1,.74,1.74,2.22,2.22,0,0,1-.74,1.71,3.59,3.59,0,0,1-2.45.68H350a3.59,3.59,0,0,1-2.45-.68,2.22,2.22,0,0,1-.74-1.71,2.2,2.2,0,0,1,.74-1.74,3.71,3.71,0,0,1,2.45-.65h3.7L374.83,9.32H360.71a3.65,3.65,0,0,1-2.45-.65,2.2,2.2,0,0,1-.74-1.74,2.2,2.2,0,0,1,.74-1.74,3.71,3.71,0,0,1,2.45-.65H384.8l23.36,61.87h3.7a3.71,3.71,0,0,1,2.45.65,2.2,2.2,0,0,1,.74,1.74,2.22,2.22,0,0,1-.74,1.71,3.59,3.59,0,0,1-2.45.68H394a3.68,3.68,0,0,1-2.5-.68,2.22,2.22,0,0,1-.74-1.71,2.2,2.2,0,0,1,.74-1.74,3.81,3.81,0,0,1,2.5-.65h9.12Zm-1.83-4.79L381.56,9.32h-1.77L367,44.13Z"/><path class="cls-1" d="M436,74.19a6.39,6.39,0,0,1-4.48-1.48,5.37,5.37,0,0,1,0-7.9,6.48,6.48,0,0,1,4.44-1.4h9.42V12.32h-13.6V25.9a6.53,6.53,0,0,1-1.4,4.49,5.36,5.36,0,0,1-7.9.05A6.37,6.37,0,0,1,421,25.9V1.54h59.61V25.9a6.56,6.56,0,0,1-1.41,4.5,5.24,5.24,0,0,1-4,1.75,5.17,5.17,0,0,1-4-1.75,6.49,6.49,0,0,1-1.41-4.5V12.32h-13.6V63.41h9.42a6.48,6.48,0,0,1,4.44,1.4,5.26,5.26,0,0,1,1.75,4,5.21,5.21,0,0,1-1.7,3.91,6.43,6.43,0,0,1-4.49,1.48Z"/><path class="cls-1" d="M453.22,9.32V66.41h12.42a3.71,3.71,0,0,1,2.45.65,2.23,2.23,0,0,1,.74,1.74,2.26,2.26,0,0,1-.74,1.71,3.59,3.59,0,0,1-2.45.68H436a3.59,3.59,0,0,1-2.45-.68,2.26,2.26,0,0,1-.74-1.71,2.23,2.23,0,0,1,.74-1.74,3.71,3.71,0,0,1,2.45-.65h12.42V9.32h-19.6V25.9a3.82,3.82,0,0,1-.65,2.51,2.23,2.23,0,0,1-1.74.74,2.26,2.26,0,0,1-1.71-.74A3.7,3.7,0,0,1,424,25.9V4.54h53.61V25.9a3.76,3.76,0,0,1-.66,2.51,2.23,2.23,0,0,1-1.74.74,2.19,2.19,0,0,1-1.73-.74,3.76,3.76,0,0,1-.66-2.51V9.32Z"/><path class="cls-1" d="M494.07,74.19a6.43,6.43,0,0,1-4.49-1.48,5.39,5.39,0,0,1,.05-7.9,6.46,6.46,0,0,1,4.44-1.4h3.44V12.32h-3.44a6.4,6.4,0,0,1-4.44-1.41,5.21,5.21,0,0,1-1.75-4,5.22,5.22,0,0,1,1.75-4,6.42,6.42,0,0,1,4.44-1.41h53.3V21a6.44,6.44,0,0,1-1.4,4.44,5.42,5.42,0,0,1-8,0,6.44,6.44,0,0,1-1.4-4.44V12.32h-28.3v18.9h11.15V28.81a6.43,6.43,0,0,1,1.48-4.49,5.27,5.27,0,0,1,4-1.7,5.21,5.21,0,0,1,3.91,1.7,6.4,6.4,0,0,1,1.48,4.49V44.42a6.39,6.39,0,0,1-1.48,4.48,5.18,5.18,0,0,1-3.91,1.71,5.25,5.25,0,0,1-4-1.71,6.39,6.39,0,0,1-1.48-4.48V42H508.29V63.41h30.8V52.28a6.4,6.4,0,0,1,1.41-4.44,5.41,5.41,0,0,1,8,0,6.4,6.4,0,0,1,1.41,4.44V74.19Z"/><path class="cls-1" d="M505.29,39V66.41h36.8V52.28a3.65,3.65,0,0,1,.66-2.45,2.4,2.4,0,0,1,3.47,0,3.65,3.65,0,0,1,.66,2.45V71.19H494.07a3.59,3.59,0,0,1-2.45-.68,2.26,2.26,0,0,1-.74-1.71,2.23,2.23,0,0,1,.74-1.74,3.71,3.71,0,0,1,2.45-.65h6.44V9.32h-6.44a3.65,3.65,0,0,1-2.45-.65,2.23,2.23,0,0,1-.74-1.74,2.23,2.23,0,0,1,.74-1.74,3.71,3.71,0,0,1,2.45-.65h50.3V21a3.71,3.71,0,0,1-.65,2.45,2.42,2.42,0,0,1-3.48,0,3.71,3.71,0,0,1-.65-2.45V9.32h-34.3v24.9h17.15V28.81a3.59,3.59,0,0,1,.68-2.45,2.29,2.29,0,0,1,1.77-.74,2.22,2.22,0,0,1,1.71.74,3.59,3.59,0,0,1,.68,2.45V44.42a3.61,3.61,0,0,1-.68,2.45,2.26,2.26,0,0,1-1.71.74,2.32,2.32,0,0,1-1.77-.74,3.61,3.61,0,0,1-.68-2.45V39Z"/><path class="cls-1" d="M593.76,76.07a33.15,33.15,0,0,1-11.58-2.18,29.44,29.44,0,0,1-7.56-4,44.59,44.59,0,0,1-7.1-7.43,34.3,34.3,0,0,1-5.82-9.9,30.89,30.89,0,0,1-1.58-10.06V32.74a34.59,34.59,0,0,1,4.11-15.81A30.71,30.71,0,0,1,575.72,4.39,30.34,30.34,0,0,1,591.54,0a31.67,31.67,0,0,1,17.75,5.17,5.18,5.18,0,0,1,5-3.63,5.14,5.14,0,0,1,4,1.75,6.42,6.42,0,0,1,1.41,4.44V21a6.49,6.49,0,0,1-1.41,4.5,5.33,5.33,0,0,1-7.77.14A6.34,6.34,0,0,1,609,21.56c-.14-2.33-1.45-4.38-4-6.31a20.94,20.94,0,0,0-13.23-4.46,20.07,20.07,0,0,0-9.08,2.13,14.46,14.46,0,0,0-4.86,3.58,34.21,34.21,0,0,0-5.5,9.06,21.29,21.29,0,0,0-1.37,7.86V41.8a22.55,22.55,0,0,0,6.89,16.49c4.62,4.71,9.81,7,15.86,7A19.65,19.65,0,0,0,603.23,63a31.4,31.4,0,0,0,8.58-7.39,5.6,5.6,0,0,1,4.46-2.27,5.23,5.23,0,0,1,3.77,1.5,5.16,5.16,0,0,1,1.51,3.72c0,1.74-1,3.54-3.24,6a34.49,34.49,0,0,1-11.49,8.59A31.38,31.38,0,0,1,593.76,76.07Z"/><path class="cls-1" d="M611.94,11.09V7.73a3.71,3.71,0,0,1,.65-2.45,2.42,2.42,0,0,1,3.48,0,3.71,3.71,0,0,1,.65,2.45V21a3.82,3.82,0,0,1-.65,2.51,2.23,2.23,0,0,1-1.74.74,2.15,2.15,0,0,1-1.62-.68,3.51,3.51,0,0,1-.77-2.23q-.29-4.78-5.19-8.48a24,24,0,0,0-15-5.07,22.88,22.88,0,0,0-10.42,2.45,17.35,17.35,0,0,0-5.81,4.32,37.07,37.07,0,0,0-6,9.86,24.14,24.14,0,0,0-1.59,9V41.8a25.66,25.66,0,0,0,7.75,18.6q7.74,7.89,18,7.89a22.53,22.53,0,0,0,11-2.68,34.05,34.05,0,0,0,9.43-8.09,2.78,2.78,0,0,1,2.17-1.2,2.23,2.23,0,0,1,1.65.63,2.16,2.16,0,0,1,.63,1.59q0,1.32-2.45,4a31.32,31.32,0,0,1-10.52,7.89,28.28,28.28,0,0,1-11.82,2.65,30.07,30.07,0,0,1-10.54-2,26.28,26.28,0,0,1-6.77-3.59,42.48,42.48,0,0,1-6.58-6.92,31,31,0,0,1-5.33-9,27.77,27.77,0,0,1-1.43-9.09V32.74A31.55,31.55,0,0,1,566.9,18.3,27.57,27.57,0,0,1,577.27,7a27.18,27.18,0,0,1,14.27-4A28.67,28.67,0,0,1,611.94,11.09Z"/><path class="cls-1" d="M674.09,74.19a6.35,6.35,0,0,1-4.54-1.48,5.36,5.36,0,0,1,.05-7.9,6.53,6.53,0,0,1,4.49-1.4h4.79l-4.31-11.49H647.3l-4.23,11.49h4.87a6.48,6.48,0,0,1,4.44,1.4,5.26,5.26,0,0,1,1.75,4,5.21,5.21,0,0,1-1.7,3.91,6.43,6.43,0,0,1-4.49,1.48H630.05a6.39,6.39,0,0,1-4.48-1.48,5.36,5.36,0,0,1,0-7.9,6.43,6.43,0,0,1,4.43-1.4h1.62l18.91-51.09h-9.82a6.42,6.42,0,0,1-4.44-1.41,5.24,5.24,0,0,1-1.75-4,5.26,5.26,0,0,1,1.75-4,6.43,6.43,0,0,1,4.44-1.41h26.18l23.35,61.87h1.63a6.48,6.48,0,0,1,4.44,1.4,5.26,5.26,0,0,1,1.75,4,5.21,5.21,0,0,1-1.7,3.91,6.43,6.43,0,0,1-4.49,1.48Zm-3.61-33.06-9.72-25.6-9.43,25.6Z"/><path class="cls-1" d="M676.65,48.92H645.21l-6.44,17.49h9.17a3.71,3.71,0,0,1,2.45.65,2.23,2.23,0,0,1,.74,1.74,2.26,2.26,0,0,1-.74,1.71,3.59,3.59,0,0,1-2.45.68H630.05a3.61,3.61,0,0,1-2.45-.68,2.26,2.26,0,0,1-.74-1.71,2.23,2.23,0,0,1,.74-1.74,3.72,3.72,0,0,1,2.45-.65h3.71L654.89,9.32H640.76a3.67,3.67,0,0,1-2.45-.65,2.23,2.23,0,0,1-.74-1.74,2.23,2.23,0,0,1,.74-1.74,3.72,3.72,0,0,1,2.45-.65h24.1l23.36,61.87h3.7a3.71,3.71,0,0,1,2.45.65,2.23,2.23,0,0,1,.74,1.74,2.26,2.26,0,0,1-.74,1.71,3.59,3.59,0,0,1-2.45.68H674.09a3.71,3.71,0,0,1-2.51-.68,2.26,2.26,0,0,1-.74-1.71,2.23,2.23,0,0,1,.74-1.74,3.84,3.84,0,0,1,2.51-.65h9.11Zm-1.82-4.79L661.61,9.32h-1.76L647,44.13Z"/></g></g></svg>