<svg xmlns="http://www.w3.org/2000/svg" viewBox="0 0 473.34 528.76"><defs><style>.cls-1{fill:#fbbd1c;}.cls-2{fill:#fbb03b;}</style></defs><g id="Layer_2" data-name="Layer 2"><g id="Layer_1-2" data-name="Layer 1"><path class="cls-1" d="M473.34,455.11l-13.58,33.25q-79.36,40.41-169.46,40.4-129.06,0-209.68-73.29T0,263.84q0-81.51,40.22-142.46T146.4,30.21Q212.36,0,294.59,0a445.52,445.52,0,0,1,94,10q46.49,10,77.58,24l2.51,3.58q-8.24,20-15.38,99l-2.5,2.86H434l-2.86-2.86-3.58-60.78q-26.1-20.73-63.1-32.35a255.53,255.53,0,0,0-77-11.62q-60.42,0-108.33,25.92t-74.36,75.08Q78.29,182,78.29,253.12q0,71.51,31.11,125.48t84.91,82.95Q248.1,490.5,320,490.5a300.73,300.73,0,0,0,61.14-6.07q29.31-6.07,48.8-15a222.85,222.85,0,0,0,37.36-21.81Z"/><circle class="cls-2" cx="329.99" cy="155.34" r="37.64"/></g></g></svg>